# xmcd
#
# Track frame offsets: 
#        150
#        15316
#        36373
#        43762
#        61187
#        79984
#        94521
#        107667
#        122858
#        137458
#        153210
#        174836
#
# Disc length: 2553 seconds
#
# Revision: 0
# Processed by: cddbd v1.5.2PL0 Copyright (c) Steve Scherf et al.
# Submitted via: ExactAudioCopyFreeDBPlugin 1.0
#
DISCID=8a09f70c
DTITLE=Yoanna - Princesse
DYEAR=1900
DGENRE=Chanson
TTITLE0=Pour un con
TTITLE1=J'ai peur
TTITLE2=Voici venu
TTITLE3=Votations
TTITLE4=Nos corps
TTITLE5=Sans couenne
TTITLE6=Lui en hiver
TTITLE7=Le roi
TTITLE8=Train fantôme
TTITLE9=Assise
TTITLE10=Prédatrice
TTITLE11=Protège moi
EXTD=
EXTT0=
EXTT1=
EXTT2=
EXTT3=
EXTT4=
EXTT5=
EXTT6=
EXTT7=
EXTT8=
EXTT9=
EXTT10=
EXTT11=
PLAYORDER=
